<mxfile host="app.diagrams.net" modified="2024-05-23T21:01:06.535Z" agent="Mozilla/5.0 (Windows NT 10.0; Win64; x64) AppleWebKit/537.36 (KHTML, like Gecko) Chrome/122.0.0.0 YaBrowser/24.4.0.0 Safari/537.36" etag="ZCHnM9hrgaEjg6ra3GUk" version="24.4.4" type="device">
  <diagram name="Страница — 1" id="7m5kgm1k3rQHASERUR9S">
    <mxGraphModel dx="1100" dy="595" grid="1" gridSize="10" guides="1" tooltips="1" connect="1" arrows="1" fold="1" page="1" pageScale="1" pageWidth="827" pageHeight="1169" math="0" shadow="0">
      <root>
        <mxCell id="0" />
        <mxCell id="1" parent="0" />
        <mxCell id="b2R_zKYD0ip4TcaFbPhI-1" value="&lt;font size=&quot;1&quot; style=&quot;&quot;&gt;&lt;b style=&quot;font-size: 22px;&quot;&gt;&amp;nbsp; &amp;nbsp;Пользователь&lt;/b&gt;&lt;/font&gt;" style="shape=umlActor;verticalLabelPosition=bottom;verticalAlign=top;html=1;outlineConnect=0;" parent="1" vertex="1">
          <mxGeometry x="390" y="205" width="75" height="150" as="geometry" />
        </mxCell>
        <mxCell id="b2R_zKYD0ip4TcaFbPhI-3" value="Смена пароля" style="ellipse;whiteSpace=wrap;html=1;" parent="1" vertex="1">
          <mxGeometry x="119.99999999999999" y="340" width="120" height="80" as="geometry" />
        </mxCell>
        <mxCell id="b2R_zKYD0ip4TcaFbPhI-4" value="Смена адреса электронной почты" style="ellipse;whiteSpace=wrap;html=1;" parent="1" vertex="1">
          <mxGeometry x="120" y="240" width="120" height="80" as="geometry" />
        </mxCell>
        <mxCell id="b2R_zKYD0ip4TcaFbPhI-5" value="Смена цветовой палитры" style="ellipse;whiteSpace=wrap;html=1;" parent="1" vertex="1">
          <mxGeometry x="190" y="440" width="120" height="80" as="geometry" />
        </mxCell>
        <mxCell id="b2R_zKYD0ip4TcaFbPhI-6" value="Смена языка" style="ellipse;whiteSpace=wrap;html=1;" parent="1" vertex="1">
          <mxGeometry x="500" y="440" width="120" height="80" as="geometry" />
        </mxCell>
        <mxCell id="b2R_zKYD0ip4TcaFbPhI-7" value="Выход из приложения" style="ellipse;whiteSpace=wrap;html=1;" parent="1" vertex="1">
          <mxGeometry x="345" y="440" width="120" height="80" as="geometry" />
        </mxCell>
        <mxCell id="b2R_zKYD0ip4TcaFbPhI-9" value="Управление задачами" style="ellipse;whiteSpace=wrap;html=1;" parent="1" vertex="1">
          <mxGeometry x="120" y="140" width="120" height="80" as="geometry" />
        </mxCell>
        <mxCell id="b2R_zKYD0ip4TcaFbPhI-10" value="Управление записями" style="ellipse;whiteSpace=wrap;html=1;" parent="1" vertex="1">
          <mxGeometry x="120" y="40" width="120" height="80" as="geometry" />
        </mxCell>
        <mxCell id="b2R_zKYD0ip4TcaFbPhI-11" value="Управление пространствами" style="ellipse;whiteSpace=wrap;html=1;" parent="1" vertex="1">
          <mxGeometry x="280" y="40" width="120" height="80" as="geometry" />
        </mxCell>
        <mxCell id="b2R_zKYD0ip4TcaFbPhI-14" value="Управление расходами" style="ellipse;whiteSpace=wrap;html=1;" parent="1" vertex="1">
          <mxGeometry x="630" y="390" width="120" height="80" as="geometry" />
        </mxCell>
        <mxCell id="b2R_zKYD0ip4TcaFbPhI-15" value="Просмотр текущего баланса" style="ellipse;whiteSpace=wrap;html=1;" parent="1" vertex="1">
          <mxGeometry x="440" y="40" width="120" height="80" as="geometry" />
        </mxCell>
        <mxCell id="b2R_zKYD0ip4TcaFbPhI-16" value="Вычисление сложного процента с пополнением" style="ellipse;whiteSpace=wrap;html=1;" parent="1" vertex="1">
          <mxGeometry x="600" y="40" width="120" height="80" as="geometry" />
        </mxCell>
        <mxCell id="b2R_zKYD0ip4TcaFbPhI-17" value="Управление типами расходов" style="ellipse;whiteSpace=wrap;html=1;" parent="1" vertex="1">
          <mxGeometry x="630" y="290" width="120" height="80" as="geometry" />
        </mxCell>
        <mxCell id="b2R_zKYD0ip4TcaFbPhI-18" value="" style="endArrow=none;html=1;rounded=0;entryX=0.925;entryY=0.75;entryDx=0;entryDy=0;entryPerimeter=0;" parent="1" target="b2R_zKYD0ip4TcaFbPhI-10" edge="1">
          <mxGeometry width="50" height="50" relative="1" as="geometry">
            <mxPoint x="380" y="210" as="sourcePoint" />
            <mxPoint x="380" y="240" as="targetPoint" />
          </mxGeometry>
        </mxCell>
        <mxCell id="b2R_zKYD0ip4TcaFbPhI-19" value="" style="endArrow=none;html=1;rounded=0;entryX=0.708;entryY=0.963;entryDx=0;entryDy=0;entryPerimeter=0;" parent="1" target="b2R_zKYD0ip4TcaFbPhI-11" edge="1">
          <mxGeometry width="50" height="50" relative="1" as="geometry">
            <mxPoint x="420" y="190" as="sourcePoint" />
            <mxPoint x="380" y="120" as="targetPoint" />
          </mxGeometry>
        </mxCell>
        <mxCell id="b2R_zKYD0ip4TcaFbPhI-20" value="" style="endArrow=none;html=1;rounded=0;entryX=1;entryY=0.5;entryDx=0;entryDy=0;" parent="1" target="b2R_zKYD0ip4TcaFbPhI-9" edge="1">
          <mxGeometry width="50" height="50" relative="1" as="geometry">
            <mxPoint x="370" y="240" as="sourcePoint" />
            <mxPoint x="251" y="120" as="targetPoint" />
          </mxGeometry>
        </mxCell>
        <mxCell id="b2R_zKYD0ip4TcaFbPhI-22" value="" style="endArrow=none;html=1;rounded=0;entryX=1;entryY=0.5;entryDx=0;entryDy=0;" parent="1" target="b2R_zKYD0ip4TcaFbPhI-4" edge="1">
          <mxGeometry width="50" height="50" relative="1" as="geometry">
            <mxPoint x="370" y="280" as="sourcePoint" />
            <mxPoint x="242" y="371" as="targetPoint" />
          </mxGeometry>
        </mxCell>
        <mxCell id="b2R_zKYD0ip4TcaFbPhI-23" value="" style="endArrow=none;html=1;rounded=0;entryX=1;entryY=0;entryDx=0;entryDy=0;" parent="1" target="b2R_zKYD0ip4TcaFbPhI-3" edge="1">
          <mxGeometry width="50" height="50" relative="1" as="geometry">
            <mxPoint x="370" y="320" as="sourcePoint" />
            <mxPoint x="281" y="150" as="targetPoint" />
          </mxGeometry>
        </mxCell>
        <mxCell id="b2R_zKYD0ip4TcaFbPhI-24" value="" style="endArrow=none;html=1;rounded=0;exitX=0.65;exitY=0.025;exitDx=0;exitDy=0;exitPerimeter=0;" parent="1" source="b2R_zKYD0ip4TcaFbPhI-5" edge="1">
          <mxGeometry width="50" height="50" relative="1" as="geometry">
            <mxPoint x="390" y="360" as="sourcePoint" />
            <mxPoint x="380" y="340" as="targetPoint" />
          </mxGeometry>
        </mxCell>
        <mxCell id="b2R_zKYD0ip4TcaFbPhI-25" value="" style="endArrow=none;html=1;rounded=0;entryX=0.5;entryY=0;entryDx=0;entryDy=0;" parent="1" target="b2R_zKYD0ip4TcaFbPhI-7" edge="1">
          <mxGeometry width="50" height="50" relative="1" as="geometry">
            <mxPoint x="410" y="390" as="sourcePoint" />
            <mxPoint x="393" y="436" as="targetPoint" />
          </mxGeometry>
        </mxCell>
        <mxCell id="b2R_zKYD0ip4TcaFbPhI-26" value="" style="endArrow=none;html=1;rounded=0;entryX=0.5;entryY=1;entryDx=0;entryDy=0;" parent="1" target="b2R_zKYD0ip4TcaFbPhI-15" edge="1">
          <mxGeometry width="50" height="50" relative="1" as="geometry">
            <mxPoint x="450" y="200" as="sourcePoint" />
            <mxPoint x="301" y="170" as="targetPoint" />
          </mxGeometry>
        </mxCell>
        <mxCell id="b2R_zKYD0ip4TcaFbPhI-27" value="" style="endArrow=none;html=1;rounded=0;entryX=0;entryY=1;entryDx=0;entryDy=0;" parent="1" target="b2R_zKYD0ip4TcaFbPhI-16" edge="1">
          <mxGeometry width="50" height="50" relative="1" as="geometry">
            <mxPoint x="470" y="220" as="sourcePoint" />
            <mxPoint x="311" y="180" as="targetPoint" />
          </mxGeometry>
        </mxCell>
        <mxCell id="b2R_zKYD0ip4TcaFbPhI-28" value="" style="endArrow=none;html=1;rounded=0;entryX=0;entryY=0.5;entryDx=0;entryDy=0;" parent="1" target="b2R_zKYD0ip4TcaFbPhI-17" edge="1">
          <mxGeometry width="50" height="50" relative="1" as="geometry">
            <mxPoint x="480" y="250" as="sourcePoint" />
            <mxPoint x="321" y="190" as="targetPoint" />
          </mxGeometry>
        </mxCell>
        <mxCell id="b2R_zKYD0ip4TcaFbPhI-29" value="" style="endArrow=none;html=1;rounded=0;entryX=0;entryY=0;entryDx=0;entryDy=0;" parent="1" target="b2R_zKYD0ip4TcaFbPhI-14" edge="1">
          <mxGeometry width="50" height="50" relative="1" as="geometry">
            <mxPoint x="480" y="280" as="sourcePoint" />
            <mxPoint x="331" y="200" as="targetPoint" />
          </mxGeometry>
        </mxCell>
        <mxCell id="b2R_zKYD0ip4TcaFbPhI-30" value="" style="endArrow=none;html=1;rounded=0;entryX=0.742;entryY=0.075;entryDx=0;entryDy=0;entryPerimeter=0;" parent="1" target="b2R_zKYD0ip4TcaFbPhI-6" edge="1">
          <mxGeometry width="50" height="50" relative="1" as="geometry">
            <mxPoint x="480" y="320" as="sourcePoint" />
            <mxPoint x="341" y="210" as="targetPoint" />
          </mxGeometry>
        </mxCell>
        <mxCell id="ZQYyJMzTgu63nv60aK1a-1" value="Управление доходами" style="ellipse;whiteSpace=wrap;html=1;" parent="1" vertex="1">
          <mxGeometry x="690" y="200" width="120" height="80" as="geometry" />
        </mxCell>
        <mxCell id="ZQYyJMzTgu63nv60aK1a-2" value="Управление типами доходов" style="ellipse;whiteSpace=wrap;html=1;" parent="1" vertex="1">
          <mxGeometry x="690" y="100" width="120" height="80" as="geometry" />
        </mxCell>
        <mxCell id="ZQYyJMzTgu63nv60aK1a-3" value="" style="endArrow=none;html=1;rounded=0;entryX=0.008;entryY=0.625;entryDx=0;entryDy=0;entryPerimeter=0;" parent="1" target="ZQYyJMzTgu63nv60aK1a-2" edge="1">
          <mxGeometry width="50" height="50" relative="1" as="geometry">
            <mxPoint x="480" y="230" as="sourcePoint" />
            <mxPoint x="628" y="118" as="targetPoint" />
          </mxGeometry>
        </mxCell>
        <mxCell id="ZQYyJMzTgu63nv60aK1a-4" value="" style="endArrow=none;html=1;rounded=0;entryX=0;entryY=0.5;entryDx=0;entryDy=0;" parent="1" target="ZQYyJMzTgu63nv60aK1a-1" edge="1">
          <mxGeometry width="50" height="50" relative="1" as="geometry">
            <mxPoint x="490" y="240" as="sourcePoint" />
            <mxPoint x="701" y="160" as="targetPoint" />
          </mxGeometry>
        </mxCell>
      </root>
    </mxGraphModel>
  </diagram>
</mxfile>
